PathFileType	4	(X/Y/Z)	./resultDataOpenSim/trcMotMarkerGrf/sub10/qtm-15-07.trc
DataRate	CameraRate	NumFrames	NumMarkers	Units	OrigDataRate	OrigDataStartFrame	OrigNumFrames
250.000000	250.000000	7	24	m	250.000000	196	520
Frame#	Time	L.Toe.Tip			R.Toe.Tip			L.Ankle.Lat			R.Ankle.Lat			L.Ankle.Med			R.Ankle.Med			L.Heel			R.Heel			L.Knee.Lat			R.Knee.Lat			L.Knee.Med			R.Knee.Med			L.Thigh.Upper			R.Thigh.Upper			L.ASIS			R.ASIS			V.Sacral			L.Acromium			R.Acromium			C7			L.Elbow			R.Elbow			L.Wrist.Lat			R.Wrist.Lat
		X1	Y1	Z1	X2	Y2	Z2	X3	Y3	Z3	X4	Y4	Z4	X5	Y5	Z5	X6	Y6	Z6	X7	Y7	Z7	X8	Y8	Z8	X9	Y9	Z9	X10	Y10	Z10	X11	Y11	Z11	X12	Y12	Z12	X13	Y13	Z13	X14	Y14	Z14	X15	Y15	Z15	X16	Y16	Z16	X17	Y17	Z17	X18	Y18	Z18	X19	Y19	Z19	X20	Y20	Z20	X21	Y21	Z21	X22	Y22	Z22	X23	Y23	Z23	X24	Y24	Z24

196	0.78	-0.058780609	-0.056675733	-0.13579733	-0.67183037	0.059817938	-0.018995107	-0.1915468	-0.03653939	-0.17959535	-0.71643956	0.19866884	0.018752421	-0.19566605	-0.0135005	-0.095232179	-0.66858505	0.1824682	-0.051270111	-0.25607425	-0.05389365	-0.13945867	-0.75064552	0.22735499	-0.037018444	-0.18275636	0.35011176	-0.21833993	-0.37989902	0.3834304	0.076035884	-0.18813768	0.32666145	-0.096721787	-0.3182224	0.34497306	-0.036056133	-0.20548118	0.73792054	-0.28460138	-0.31953316	0.78809042	0.08262664	-0.17302417	0.85478206	-0.20406545	-0.22226287	0.86896657	0.023309845	-0.38407053	0.88639073	-0.14493004	-0.31261982	1.3355503	-0.28252027	-0.3555337	1.3218026	0.034716215	-0.40942647	1.339676	-0.13815305	-0.43220795	1.0200772	-0.32124178	-0.36956546	0.96903214	0.11665496	-0.35843351	0.79988568	-0.38913243	-0.12620162	0.894498	0.13571954
197	0.784	-0.05861938	-0.056791518	-0.13540864	-0.66423585	0.063968164	-0.014882273	-0.19123773	-0.035743108	-0.17891114	-0.70579657	0.20458143	0.019426006	-0.19552095	-0.013252747	-0.094534441	-0.658722	0.18652141	-0.05073087	-0.25575211	-0.054095645	-0.13903463	-0.73966442	0.23334071	-0.037195891	-0.17722932	0.34944987	-0.2177062	-0.36778691	0.38025291	0.079041691	-0.18428065	0.32706355	-0.095669857	-0.30409616	0.3400855	-0.033165543	-0.19936893	0.7346334	-0.28561754	-0.31310069	0.78617147	0.081861108	-0.16799896	0.85082956	-0.20452234	-0.21593487	0.86655841	0.022200114	-0.37953148	0.88409861	-0.14734382	-0.30489356	1.3334884	-0.28359937	-0.34934593	1.3190052	0.033760333	-0.40310386	1.3369364	-0.13964772	-0.42454309	1.0177213	-0.32222647	-0.36501456	0.96632382	0.11717321	-0.35031391	0.79824701	-0.39189747	-0.12145334	0.89268276	0.13811128
198	0.788	-0.058456398	-0.056778205	-0.13521712	-0.65586376	0.068619251	-0.01009447	-0.19103241	-0.034881764	-0.17851667	-0.69473667	0.21054813	0.020066407	-0.19548949	-0.012589178	-0.094355298	-0.64834118	0.19086152	-0.05020959	-0.25545927	-0.054212365	-0.138664	-0.72778723	0.2393227	-0.037376895	-0.17072356	0.34949204	-0.21713605	-0.35531267	0.37715616	0.081831723	-0.17966966	0.32900543	-0.094474113	-0.29002425	0.33559461	-0.030785163	-0.19416815	0.73256523	-0.28676886	-0.30692623	0.78406813	0.081262856	-0.16333647	0.84691355	-0.20511036	-0.20980873	0.86396564	0.021091762	-0.37575905	0.88169058	-0.14916313	-0.29705735	1.3315115	-0.28463707	-0.34308273	1.316402	0.032994499	-0.39699894	1.3342906	-0.14094694	-0.41671411	1.0152801	-0.32338505	-0.36013341	0.96369974	0.11779504	-0.34213401	0.79646123	-0.39470005	-0.11669462	0.89087262	0.14081239
199	0.792	-0.058186211	-0.056663999	-0.13508458	-0.64661798	0.073781612	-0.0047712285	-0.19077232	-0.034029419	-0.17822943	-0.68346503	0.21649968	0.020564566	-0.19519563	-0.011762337	-0.094446629	-0.63731602	0.19550396	-0.049692208	-0.25519741	-0.054252027	-0.1383502	-0.71525963	0.24533707	-0.037442633	-0.1632514	0.35003285	-0.2165765	-0.34239052	0.37417645	0.084231351	-0.17447585	0.33176079	-0.093486455	-0.27610773	0.33190981	-0.029081402	-0.19022883	0.73188041	-0.28809286	-0.30062983	0.78165499	0.080679079	-0.1589793	0.84311572	-0.20578722	-0.20396037	0.86127639	0.019923582	-0.37210352	0.87933588	-0.15031699	-0.28918259	1.3296803	-0.28554819	-0.33681573	1.3140981	0.03242016	-0.39092389	1.33195	-0.14200741	-0.40868701	1.0128075	-0.32479994	-0.35491705	0.96126505	0.11851452	-0.33385021	0.79458393	-0.39752925	-0.11197741	0.88909449	0.14383536
200	0.796	-0.057815854	-0.056507043	-0.13499444	-0.63642872	0.079375751	0.00088824632	-0.1903589	-0.033202555	-0.17797495	-0.67189579	0.22249335	0.020916078	-0.19443837	-0.01094481	-0.094591736	-0.6255423	0.20036061	-0.049169012	-0.25496887	-0.054223796	-0.13809559	-0.70237789	0.25133079	-0.037427329	-0.15491276	0.35090758	-0.21599569	-0.32902027	0.37136121	0.086159199	-0.16880464	0.33461049	-0.092899846	-0.26231251	0.32939148	-0.028065311	-0.18735255	0.73210783	-0.28957844	-0.2938369	0.77881267	0.079950329	-0.15484247	0.83952073	-0.20651203	-0.19844178	0.85859213	0.018669614	-0.36830403	0.87716059	-0.15087651	-0.28135177	1.3280424	-0.28627856	-0.3305592	1.312195	0.032019536	-0.38451366	1.3301765	-0.14300921	-0.40045003	1.010368	-0.3265189	-0.34940289	0.95915996	0.11944927	-0.32538024	0.79270534	-0.40038562	-0.10735363	0.88741102	0.14720468
201	0.8	-0.057402699	-0.056406816	-0.13501637	-0.625281	0.085284133	0.0066592926	-0.18979966	-0.032480007	-0.17781154	-0.6597868	0.22863076	0.021204233	-0.19332753	-0.010196802	-0.094697078	-0.61308311	0.20526099	-0.048627707	-0.25477769	-0.054139407	-0.13790076	-0.68933654	0.25715939	-0.037474201	-0.14593127	0.35192773	-0.21541031	-0.31526583	0.36878958	0.087613165	-0.1625481	0.33709325	-0.092670498	-0.24848657	0.32814895	-0.027596804	-0.18495842	0.7325522	-0.29109556	-0.28667312	0.77559111	0.079175356	-0.15085095	0.83621571	-0.20727884	-0.19327704	0.85599082	0.017361984	-0.3644705	0.87512148	-0.15117037	-0.2736277	1.3266142	-0.28683036	-0.32425188	1.3107256	0.031756196	-0.37748526	1.3291904	-0.14416905	-0.39203078	1.0080486	-0.32852964	-0.34364936	0.95750964	0.1207256	-0.31663803	0.79093523	-0.40328649	-0.1028576	0.88592128	0.15096398
202	0.804	-0.056978573	-0.056417031	-0.13517876	-0.61322091	0.091411609	0.012309455	-0.18912385	-0.031966005	-0.17781585	-0.64700849	0.23493114	0.021532654	-0.19213189	-0.0095280755	-0.09479279	-0.60014098	0.21004	-0.048062307	-0.25462985	-0.054013226	-0.13776631	-0.67622043	0.26269894	-0.037660743	-0.13662603	0.35285598	-0.21485311	-0.3012101	0.36658755	0.088674901	-0.15535966	0.33898793	-0.092586565	-0.23448303	0.32800277	-0.027466549	-0.18254991	0.73275892	-0.29243896	-0.27964695	0.7721923	0.078612615	-0.14695685	0.83327977	-0.20813146	-0.18846166	0.85350723	0.016066497	-0.36066695	0.87303528	-0.15170422	-0.2660237	1.3253729	-0.2872417	-0.31781499	1.3096259	0.03158409	-0.36980203	1.3290315	-0.14550886	-0.38348459	1.0059506	-0.33075463	-0.33770224	0.95633371	0.1222745	-0.307561	0.78938761	-0.40626614	-0.098506672	0.88474716	0.15516825
